<?xml version="1.0" encoding="UTF-8"?>
<svg id="Layer_1" data-name="Layer 1" xmlns="http://www.w3.org/2000/svg" viewBox="0 0 250 150">
  <defs>
    <style>
      .cls-1 {
        fill: #fff;
        stroke-width: 0px;
      }
    </style>
  </defs>
  <polygon class="cls-1" points="199.12 91.59 168.46 89.15 159.12 82.04 142.46 86.82 145.1 72.09 123.38 84.08 161.25 54.43 199.12 91.59"/>
  <polygon class="cls-1" points="141.85 33.92 108.75 66.81 100.63 60.11 88.45 73.01 80.93 66.41 54.53 91.59 71.18 81.23 70.58 88.14 101.85 65.8 102.26 73.01 83.17 91.59 139.42 48.54 158.51 50.97 141.85 33.92"/>
  <g>
    <path class="cls-1" d="M61.43,98.09l4.39,17.84-.1.15h-5.18l-.54-3.12h-3.31l-.54,3.12h-5.18l-.1-.15,4.49-17.84h6.07ZM57.3,109.46h2.09l-.23-1.38c-.28-1.66-.64-3.94-.79-5.83h-.08c-.13,1.89-.51,4.2-.77,5.83l-.23,1.38Z"/>
    <path class="cls-1" d="M66.86,98.09h4.87v13.67h5.46l-.54,4.32h-9.79v-17.99Z"/>
    <path class="cls-1" d="M90.58,104.26c0,3.74-1.81,6.01-5.76,6.01h-1.22v5.81h-4.87v-17.99h5.46c4.44,0,6.4,2.1,6.4,6.17ZM84.13,106.51c1.33,0,1.89-.74,1.89-2.28,0-1.64-.61-2.33-1.89-2.33h-.51v4.61h.51Z"/>
    <path class="cls-1" d="M92.23,98.09h4.87v17.99h-4.87v-17.99Z"/>
    <path class="cls-1" d="M99.24,116.08v-17.99h5.25l2.27,5.66c.43,1.1,1.38,3.86,1.91,5.6h.1c-.41-1.74-.82-4.68-.82-6.96v-4.3h4.84v17.99h-4.95l-2.47-6.22c-.46-1.13-1.27-3.46-1.89-5.27h-.1c.33,1.82.69,4.58.69,7.09v4.4h-4.84Z"/>
    <path class="cls-1" d="M119.77,108.74v3.22h4.87l-.46,4.12h-9.23v-17.99h9.23l.46,4.12h-4.87v2.99h4.18v3.53h-4.18Z"/>
    <path class="cls-1" d="M138.25,98.09h4.87v17.99h-4.87v-6.96h-3.31v6.96h-4.87v-17.99h4.87v6.83h3.31v-6.83Z"/>
    <path class="cls-1" d="M154.75,98.09l4.39,17.84-.1.15h-5.18l-.54-3.12h-3.31l-.54,3.12h-5.18l-.1-.15,4.49-17.84h6.07ZM150.62,109.46h2.09l-.23-1.38c-.28-1.66-.64-3.94-.79-5.83h-.08c-.13,1.89-.51,4.2-.77,5.83l-.23,1.38Z"/>
    <path class="cls-1" d="M162.96,116.16l-4.74-17.91.1-.15h5.51l1.56,9.19c.15.97.48,2.3.59,3.89h.1c.1-1.56.41-2.89.56-3.86l1.53-9.21h5.48l.13.15-4.77,17.91h-6.04Z"/>
    <path class="cls-1" d="M179.74,108.74v3.22h4.87l-.46,4.12h-9.23v-17.99h9.23l.46,4.12h-4.87v2.99h4.18v3.53h-4.18Z"/>
    <path class="cls-1" d="M186.47,116.08v-17.99h5.25l2.27,5.66c.43,1.1,1.38,3.86,1.91,5.6h.1c-.41-1.74-.82-4.68-.82-6.96v-4.3h4.84v17.99h-4.95l-2.47-6.22c-.46-1.13-1.27-3.46-1.89-5.27h-.1c.33,1.82.69,4.58.69,7.09v4.4h-4.84Z"/>
  </g>
</svg>